<?xml version="1.0" standalone="no"?>
<!DOCTYPE svg PUBLIC "-//W3C//DTD SVG 20010904//EN"
 "http://www.w3.org/TR/2001/REC-SVG-20010904/DTD/svg10.dtd">
<svg version="1.0" xmlns="http://www.w3.org/2000/svg"
 width="500.000000pt" height="500.000000pt" viewBox="0 0 500.000000 500.000000"
 preserveAspectRatio="xMidYMid meet">

<g transform="translate(0.000000,500.000000) scale(0.100000,-0.100000)"
fill="#000000" stroke="none">
<path d="M1577 4802 c-13 -3 -16 -9 -11 -25 4 -12 11 -25 16 -28 18 -11 -11
-21 -42 -14 -34 7 -83 -21 -101 -58 -10 -22 -10 -22 8 -2 10 11 24 21 31 23
20 4 14 -16 -9 -29 l-21 -11 23 -24 c12 -13 28 -24 35 -24 35 0 -34 -152 -285
-634 l-130 -250 -63 -17 c-34 -10 -64 -16 -66 -14 -2 1 43 94 98 206 56 112
98 200 93 194 -5 -5 -77 -104 -158 -220 -82 -115 -199 -277 -260 -360 -299
-405 -305 -420 -60 -150 55 61 126 137 157 170 l58 60 0 -37 c0 -21 5 -38 10
-38 6 0 10 11 10 25 0 14 5 25 10 25 6 0 10 13 10 28 0 16 6 37 14 47 13 18
15 18 50 1 30 -14 40 -15 52 -5 13 10 17 10 25 -2 8 -13 6 -29 -8 -66 -3 -8 4
-13 18 -13 21 -1 22 -2 8 -13 -8 -7 -18 -22 -21 -34 -5 -18 -2 -23 12 -23 10
0 21 -6 23 -12 3 -8 6 -6 6 5 1 9 7 17 14 17 6 0 34 12 61 26 l48 26 310 -207
c171 -113 307 -209 304 -212 -3 -3 -12 0 -21 7 -8 7 -15 10 -15 7 0 -9 1123
-781 1147 -789 4 -2 8 2 8 7 1 6 -139 105 -310 222 -170 116 -318 218 -327
226 -9 9 -18 13 -21 11 -2 -3 -23 13 -47 36 -23 22 -47 37 -52 34 -6 -4 -8 -2
-5 3 7 11 -71 68 -80 59 -3 -2 9 -12 25 -20 17 -9 34 -21 37 -27 4 -6 -10 0
-31 14 -22 13 -39 30 -39 38 0 8 15 25 33 37 18 13 32 26 29 28 -2 2 -25 -3
-50 -12 -26 -9 -55 -13 -65 -9 -13 6 -6 11 28 20 70 18 150 60 234 121 114 81
224 151 384 243 78 46 142 85 142 88 0 2 -3 2 -7 0 -5 -3 -93 -53 -198 -112
-104 -59 -234 -136 -288 -172 -54 -35 -116 -71 -139 -79 -23 -8 -73 -32 -111
-54 -68 -39 -87 -43 -87 -15 0 8 -6 12 -13 9 -8 -3 -19 2 -26 10 -13 16 -47
206 -57 316 -3 36 -19 130 -35 209 -17 79 -26 147 -22 151 9 9 39 20 653 243
l455 166 120 -34 c65 -19 122 -35 126 -35 11 0 17 22 24 91 l7 64 -30 0 c-17
0 -28 -3 -26 -7 2 -3 -10 -11 -28 -17 -42 -15 -50 -12 -13 4 86 40 -58 -6
-683 -216 -378 -127 -727 -243 -777 -259 -49 -15 -156 -51 -238 -79 -81 -28
-174 -56 -207 -63 -57 -11 -61 -11 -85 12 -14 13 -25 28 -25 33 0 6 3 7 7 4 4
-4 16 11 27 34 20 39 26 42 146 86 69 25 283 104 475 176 712 263 1359 497
1377 497 10 0 22 -10 27 -22 5 -13 22 -36 39 -51 l30 -28 12 50 c7 28 16 48
21 45 12 -7 11 -42 -5 -85 l-12 -35 53 4 c53 4 53 4 53 -24 0 -16 -9 -87 -20
-159 -11 -71 -19 -141 -19 -155 1 -31 58 225 59 263 0 15 6 27 13 27 11 0 10
-21 -5 -107 -20 -123 -105 -692 -142 -953 -42 -296 -77 -592 -72 -598 4 -3 6
1 6 9 0 15 64 419 181 1139 41 254 68 449 65 469 -4 25 -1 38 11 46 13 10 13
15 3 35 -10 19 -10 24 4 32 21 12 20 31 -4 53 -15 14 -17 22 -9 37 13 24 5 48
-16 48 -14 0 -16 -8 -19 -75 -1 -17 -9 -21 -50 -23 -46 -3 -47 -2 -41 20 4 13
14 27 21 31 12 7 11 12 -2 32 -17 26 -15 28 29 28 15 0 17 5 13 23 -6 21 -3
24 25 24 41 0 91 -49 88 -87 -5 -61 1 -114 12 -108 7 5 8 -5 3 -30 l-7 -37 29
18 c16 10 36 24 45 31 14 12 36 -14 183 -212 92 -123 172 -228 178 -231 16
-10 8 1 -131 191 -69 94 -167 230 -219 302 -53 75 -108 141 -127 153 -18 11
-60 24 -93 28 -54 8 -62 6 -67 -8 -3 -9 -21 -25 -40 -35 -18 -11 -32 -22 -29
-27 3 -4 -8 -7 -23 -6 -15 1 -117 -31 -225 -71 -156 -57 -201 -69 -220 -62
-13 5 -90 24 -173 41 -82 18 -157 36 -166 40 -14 8 -288 51 -531 84 -137 19
-144 21 -151 47 -4 14 -14 19 -42 19 -32 0 -36 -2 -25 -15 16 -20 -7 -20 -32
-1 -19 14 -25 32 -8 21 6 -3 10 4 10 16 0 13 -17 38 -40 60 -44 42 -50 54 -21
46 15 -3 21 4 30 34 15 50 35 51 29 2 -3 -21 -8 -46 -12 -55 -6 -14 2 -20 45
-32 63 -19 75 -19 34 -1 l-30 14 43 1 c23 0 41 3 40 8 -1 4 12 21 30 39 55 54
45 61 -107 67 -51 2 -96 8 -100 13 -3 5 -14 7 -24 5z m9 -243 c-33 -79 -32
-85 2 -61 26 19 28 19 28 2 0 -10 -4 -16 -8 -14 -4 3 -5 -3 -1 -12 5 -13 3
-15 -7 -9 -9 5 -11 4 -6 -3 11 -18 24 -14 31 8 11 34 22 22 29 -29 3 -26 24
-144 47 -262 38 -203 39 -214 22 -227 -41 -30 -46 -18 -90 242 -23 136 -44
250 -46 252 -3 3 -20 -23 -40 -58 -49 -88 -121 -237 -103 -213 8 11 22 27 30
35 8 8 22 32 32 53 10 20 21 37 26 37 4 0 8 6 8 13 0 6 8 25 19 40 l18 28 43
-218 c23 -120 43 -222 44 -227 1 -9 -413 -166 -440 -166 -2 0 59 127 136 283
133 266 158 336 54 147 -75 -137 -122 -213 -149 -245 -30 -35 94 213 184 368
33 56 81 148 107 205 51 112 70 132 30 31z m1763 -44 c-10 -10 -22 -13 -34 -9
-18 7 -18 8 1 15 10 4 26 8 34 8 12 1 12 -1 -1 -14z m-1459 -42 c63 -19 246
-73 405 -120 160 -47 291 -86 293 -88 5 -5 -740 -275 -760 -275 -11 0 -21 37
-41 143 -15 78 -38 197 -51 265 l-23 123 31 -7 c17 -3 83 -22 146 -41z m1220
-282 c-8 -5 -26 -11 -40 -15 -21 -5 -20 -3 5 9 32 15 60 20 35 6z m-1285 -632
c43 -192 81 -337 106 -405 12 -30 19 -57 17 -60 -3 -2 -103 62 -224 144 -355
238 -424 286 -421 296 3 10 372 145 399 145 10 1 18 -8 21 -21 3 -16 4 -15 2
4 -1 21 4 30 24 37 14 5 30 8 35 7 5 -1 24 -67 41 -147z m155 -509 c66 -44
120 -82 120 -85 0 -5 -228 141 -244 156 -29 27 18 0 124 -71z"/>
<path d="M1530 4780 c-9 -6 -10 -10 -3 -10 6 0 15 5 18 10 8 12 4 12 -15 0z"/>
<path d="M2078 4733 c7 -3 16 -2 19 1 4 3 -2 6 -13 5 -11 0 -14 -3 -6 -6z"/>
<path d="M3040 4295 c-25 -8 -66 -20 -92 -29 -27 -8 -48 -12 -48 -9 0 3 -6 0
-13 -6 -8 -6 -17 -8 -20 -4 -4 3 -7 1 -7 -5 0 -6 -8 -10 -17 -10 -33 3 -74
-12 -67 -24 5 -7 3 -8 -5 -4 -14 9 -73 -13 -66 -24 4 -7 -106 -60 -126 -60 -5
0 -43 -16 -85 -35 -41 -19 -77 -35 -80 -35 -2 0 -38 -16 -80 -35 -41 -19 -78
-35 -80 -35 -3 0 -26 -10 -52 -21 -26 -12 -65 -30 -87 -40 -53 -24 -29 -24 32
0 26 10 156 58 288 106 402 146 655 252 655 276 0 5 -1 9 -2 8 -2 0 -23 -7
-48 -14z"/>
<path d="M1070 4150 c-12 -16 -19 -30 -16 -30 2 0 14 14 26 30 12 17 19 30 16
30 -2 0 -14 -13 -26 -30z"/>
<path d="M3496 4159 c-9 -26 -23 -150 -17 -153 3 -2 32 -10 64 -17 56 -13 61
-17 104 -79 26 -36 56 -76 67 -89 20 -23 20 -23 1 -12 -17 11 -39 2 -155 -60
-74 -39 -136 -72 -137 -73 -1 -1 -5 -28 -9 -60 -7 -57 -6 -58 14 -47 11 6 27
9 34 6 7 -3 80 33 162 79 l150 85 113 -154 114 -154 5 -148 c3 -81 9 -193 13
-248 7 -88 8 -74 10 118 0 134 -3 226 -9 238 -25 46 5 9 116 -142 66 -89 197
-268 293 -398 95 -130 178 -240 183 -246 36 -36 -54 94 -337 485 -397 549
-696 967 -758 1059 -12 18 -18 21 -21 10z"/>
<path d="M990 4035 c-17 -25 -29 -45 -26 -45 3 0 19 20 36 45 17 25 29 45 26
45 -3 0 -19 -20 -36 -45z"/>
<path d="M4056 3999 c-19 -19 -19 -19 8 -19 16 0 25 -4 21 -10 -3 -5 -15 -10
-25 -10 -10 0 -21 -4 -24 -9 -3 -4 6 -6 19 -3 13 2 38 0 54 -6 l30 -10 -27 44
c-15 24 -29 44 -32 43 -3 0 -14 -9 -24 -20z"/>
<path d="M920 3935 c-17 -25 -29 -45 -26 -45 3 0 19 20 36 45 17 25 29 45 26
45 -3 0 -19 -20 -36 -45z"/>
<path d="M3530 3865 c-52 -30 -91 -55 -87 -55 10 0 145 74 172 94 36 28 11 16
-85 -39z"/>
<path d="M2034 3884 c-18 -14 -18 -14 6 -3 31 14 36 19 24 19 -6 0 -19 -7 -30
-16z"/>
<path d="M1460 3718 c-36 -10 -102 -30 -147 -44 -55 -16 -83 -30 -83 -39 0
-23 26 -18 140 26 58 23 120 46 138 52 17 6 32 14 32 19 0 10 -2 10 -80 -14z"/>
<path d="M3118 3634 c-38 -20 -36 -28 2 -9 17 9 30 18 30 20 0 7 -1 6 -32 -11z"/>
<path d="M968 3579 c-4 -23 0 -34 16 -44 28 -17 71 -14 71 5 0 11 -9 14 -32
12 -24 -2 -33 1 -33 12 0 8 5 18 10 21 17 10 11 25 -9 25 -13 0 -20 -9 -23
-31z"/>
<path d="M3426 3555 c-11 -8 -15 -15 -10 -15 6 0 19 7 30 15 10 8 15 14 9 14
-5 0 -19 -6 -29 -14z"/>
<path d="M2964 3544 c-18 -14 -18 -15 4 -4 12 6 22 13 22 15 0 8 -5 6 -26 -11z"/>
<path d="M2894 3504 c-18 -14 -18 -15 4 -4 12 6 22 13 22 15 0 8 -5 6 -26 -11z"/>
<path d="M3040 3473 c-382 -207 -600 -333 -574 -333 6 0 108 47 227 105 236
114 412 195 426 195 9 0 21 34 21 63 0 9 -3 17 -7 17 -5 -1 -46 -21 -93 -47z"/>
<path d="M956 3493 c-11 -27 -6 -90 7 -101 6 -5 21 -12 32 -14 19 -3 20 -14
27 -163 9 -206 17 -270 30 -257 6 6 12 82 14 184 2 95 6 183 9 195 3 14 -4 32
-21 52 -19 23 -21 29 -8 24 30 -11 -15 55 -53 77 -27 16 -32 16 -37 3z"/>
<path d="M906 3475 c-6 -18 -90 -117 -204 -240 -453 -487 -443 -476 -455 -523
-4 -17 0 -25 13 -30 10 -4 19 -10 19 -14 2 -23 19 -6 43 42 35 72 246 324 501
597 67 72 93 89 36 23 -47 -54 -262 -313 -278 -335 -8 -11 32 30 89 90 199
209 220 230 220 218 0 -14 -39 -59 -344 -397 -113 -126 -206 -233 -206 -238 0
-19 20 -2 87 73 69 76 347 383 429 472 42 47 44 51 44 112 0 36 5 65 11 67 6
2 9 26 7 58 -3 50 -4 52 -12 25z"/>
<path d="M1150 3485 c0 -11 47 -46 103 -76 69 -36 63 -21 -17 40 -45 35 -86
52 -86 36z"/>
<path d="M1091 3444 c0 -11 3 -14 6 -6 3 7 2 16 -1 19 -3 4 -6 -2 -5 -13z"/>
<path d="M1081 3404 c0 -11 3 -14 6 -6 3 7 2 16 -1 19 -3 4 -6 -2 -5 -13z"/>
<path d="M1116 3366 c-10 -34 -15 -87 -14 -143 1 -48 3 -68 5 -43 6 89 14 145
22 159 10 15 13 13 166 -94 55 -39 172 -120 260 -180 88 -60 179 -123 203
-141 l43 -33 -32 -3 c-18 -2 -34 -9 -37 -16 -3 -10 10 -13 54 -11 53 2 64 -2
107 -31 37 -27 44 -36 32 -43 -22 -12 -19 -23 20 -59 34 -33 34 -34 24 -83
-14 -71 -40 -277 -36 -281 2 -2 11 41 21 97 20 113 32 130 16 23 -14 -96 -11
-120 6 -51 22 92 41 239 36 279 l-4 38 143 -99 c79 -55 158 -114 174 -132 17
-18 23 -28 15 -22 -8 6 -58 34 -110 63 -52 29 -119 65 -147 82 -39 22 -53 26
-53 15 0 -8 14 -20 30 -27 38 -16 52 -35 19 -25 -39 12 -11 -9 242 -181 242
-165 419 -290 419 -295 0 -4 -98 -62 -217 -130 -549 -309 -612 -347 -605 -354
4 -5 2 -5 -4 -2 -6 4 -36 -7 -65 -23 -30 -16 -58 -30 -63 -30 -9 0 -2 98 14
185 13 75 32 229 30 239 -1 5 3 12 10 16 6 4 13 27 16 51 2 24 6 58 9 74 6 37
14 145 20 245 5 103 17 314 18 320 1 10 -23 60 -28 60 -4 0 -3 -5 0 -11 4 -6
-3 -21 -16 -35 -19 -21 -20 -24 -5 -24 15 0 16 -7 11 -47 -8 -54 -123 -797
-156 -1000 l-22 -133 -51 -32 c-28 -17 -70 -42 -92 -54 -159 -86 -193 -107
-187 -116 3 -7 1 -8 -5 -4 -6 4 -28 -2 -49 -13 -21 -11 -34 -20 -30 -21 4 0
21 7 37 15 17 9 30 13 30 10 0 -3 -41 -26 -92 -50 -66 -32 -95 -42 -104 -34
-17 14 -26 98 -34 324 l-7 190 1 -264 c1 -202 4 -265 13 -269 9 -2 11 -13 7
-29 l-7 -26 59 33 c32 19 191 109 352 201 161 92 316 178 345 191 125 55 402
202 815 435 200 112 204 114 224 96 12 -10 32 -42 45 -72 27 -60 14 -58 142
-21 40 11 75 19 76 18 1 -2 53 -255 115 -563 61 -308 129 -635 151 -728 21
-92 39 -169 39 -172 0 -2 20 3 45 11 57 20 72 37 239 284 396 583 808 1183
849 1236 42 55 53 85 48 142 -1 13 -41 17 -41 5 0 -5 -12 -21 -26 -38 l-26
-30 22 33 c17 25 18 32 6 32 -8 0 -103 -98 -212 -217 -109 -120 -233 -255
-276 -299 -47 -49 -78 -90 -78 -102 0 -13 -5 -19 -13 -16 -7 2 -25 -8 -39 -23
-23 -24 -25 -31 -14 -46 12 -15 35 6 228 210 252 269 314 333 301 313 -37 -54
-457 -657 -463 -663 -12 -14 -74 31 -99 73 -18 28 -28 37 -37 29 -20 -16 -24
13 -26 199 -2 170 -2 172 -5 42 -2 -74 -7 -138 -12 -143 -8 -8 -182 107 -509
336 -63 43 -116 77 -118 74 -3 -3 -2 -16 1 -30 5 -20 41 -48 143 -115 447
-290 482 -314 482 -336 -1 -30 -26 -60 -45 -53 -19 8 -19 -3 0 -29 22 -30 18
-58 -21 -135 -19 -39 -33 -76 -31 -82 2 -7 11 3 21 20 9 18 21 32 27 30 6 -1
15 8 20 21 4 12 5 22 0 22 -4 0 -6 11 -4 25 8 38 52 60 116 56 9 -1 23 -13 30
-28 6 -16 14 -30 18 -33 5 -5 -290 -432 -353 -511 -23 -28 -19 -15 24 81 76
172 91 224 52 173 -11 -14 -11 -8 1 27 26 79 -8 22 -127 -215 -61 -121 -113
-215 -115 -210 -1 6 -20 97 -42 203 l-38 193 21 8 c11 5 86 32 166 61 137 50
181 72 168 85 -3 3 -81 -21 -173 -53 -124 -43 -170 -64 -175 -78 -5 -12 -11 3
-20 49 -7 37 -10 71 -6 74 3 4 6 1 6 -6 0 -8 7 -7 23 3 32 21 363 175 392 182
31 8 31 15 2 42 -22 21 -56 21 -82 2 -5 -5 -80 -33 -165 -63 -200 -71 -188
-66 -192 -85 -2 -10 -25 93 -51 228 -26 135 -59 301 -72 369 -17 83 -23 142
-20 180 4 39 3 50 -4 36 -9 -18 -10 -18 -10 -2 -1 10 -7 17 -13 14 -7 -2 -12
-11 -10 -20 2 -11 -3 -14 -18 -10 -11 3 -20 11 -20 19 0 8 -10 4 -26 -11 -30
-28 -44 -31 -63 -12 -11 10 -13 9 -8 -4 5 -15 3 -15 -26 -1 -51 25 -67 63 -22
54 22 -4 25 -1 26 29 2 31 2 31 6 7 6 -37 21 -35 35 3 13 38 35 35 66 -11 l25
-35 -6 31 c-3 17 -2 35 3 40 4 5 12 31 15 58 l8 48 -39 -4 c-28 -4 -52 1 -86
18 l-47 24 -17 -45 c-17 -45 -78 -115 -100 -115 -15 0 -433 289 -518 359 -223
183 -346 277 -526 405 -147 104 -614 410 -679 445 -18 10 -21 6 -35 -43z
m1371 -961 c0 -8 -4 -12 -9 -9 -5 3 -6 10 -3 15 9 13 12 11 12 -6z m225 -142
c25 -18 51 -32 57 -31 14 4 96 -52 111 -75 10 -16 9 -17 -7 -9 -12 7 -24 7
-38 0 -16 -9 -18 -8 -7 3 23 24 12 29 -20 9 -18 -11 -36 -20 -40 -20 -12 0
-262 241 -264 255 -2 12 79 -39 208 -132z m319 10 c-5 -10 -16 -27 -25 -38
-21 -27 -21 -1 0 30 19 29 40 35 25 8z m-51 -78 c-7 -9 -15 -13 -17 -11 -7 7
7 26 19 26 6 0 6 -6 -2 -15z m1550 -75 c-12 -16 -24 -30 -26 -30 -3 0 4 14 16
30 12 17 24 30 26 30 3 0 -4 -13 -16 -30z m-1540 -73 c0 -18 -2 -19 -10 -7
-13 20 -13 43 0 35 6 -3 10 -16 10 -28z m895 -578 c-1 -20 -31 -46 -41 -36 -4
3 33 57 40 57 1 0 2 -9 1 -21z m-528 -211 c-3 -7 -5 -2 -5 12 0 14 2 19 5 13
2 -7 2 -19 0 -25z m103 -122 c0 -2 -13 -9 -30 -15 -16 -5 -30 -6 -30 -1 0 5 8
11 18 13 24 7 42 8 42 3z"/>
<path d="M2770 2226 c0 -3 9 -10 20 -16 11 -6 20 -8 20 -6 0 3 -9 10 -20 16
-11 6 -20 8 -20 6z"/>
<path d="M442 3168 c-104 -142 -170 -240 -137 -203 21 22 64 79 98 128 33 48
64 87 68 87 3 0 9 9 12 20 8 30 1 25 -41 -32z"/>
<path d="M380 3160 c-12 -16 -19 -30 -16 -30 2 0 14 14 26 30 12 17 19 30 16
30 -2 0 -14 -13 -26 -30z"/>
<path d="M319 3073 c-13 -16 -12 -17 4 -4 9 7 17 15 17 17 0 8 -8 3 -21 -13z"/>
<path d="M1718 2913 c6 -2 18 -2 25 0 6 3 1 5 -13 5 -14 0 -19 -2 -12 -5z"/>
<path d="M139 2813 c-13 -16 -12 -17 4 -4 9 7 17 15 17 17 0 8 -8 3 -21 -13z"/>
<path d="M108 2738 c-13 -13 -26 -23 -30 -23 -3 0 -10 -4 -15 -9 -5 -6 -2 -6
6 -1 11 6 13 4 8 -9 -4 -10 -7 -27 -7 -39 0 -16 -3 -18 -9 -8 -13 20 -21 -1
-17 -44 1 -22 9 -41 19 -47 9 -5 29 -30 44 -56 61 -105 138 -220 176 -261 22
-24 37 -36 32 -25 -21 52 -44 137 -39 145 11 18 22 4 74 -95 69 -132 270 -480
338 -586 31 -47 91 -143 134 -214 l78 -128 0 65 0 66 -131 228 c-72 125 -133
231 -136 236 -2 4 -2 7 0 7 2 0 20 -24 40 -53 35 -50 109 -129 92 -97 -16 30
-210 306 -240 341 -16 21 -41 57 -53 80 -19 36 -20 39 -4 19 11 -14 28 -35 39
-47 25 -30 101 -128 260 -338 75 -99 134 -173 131 -164 -4 8 -55 83 -115 165
-61 82 -116 161 -124 176 -8 14 -34 53 -57 85 -142 189 -279 381 -285 397 -4
10 -10 16 -14 13 -10 -11 -33 14 -33 36 0 11 7 28 15 37 14 15 12 18 -25 29
-22 6 -40 18 -40 26 0 7 -16 30 -35 49 -19 20 -35 43 -35 51 0 21 -17 18 -42
-7z m222 -278 c9 -16 8 -20 -5 -20 -8 0 -15 9 -15 20 0 11 2 20 5 20 2 0 9 -9
15 -20z"/>
<path d="M1798 2703 c6 -2 18 -2 25 0 6 3 1 5 -13 5 -14 0 -19 -2 -12 -5z"/>
<path d="M1718 2683 c7 -3 16 -2 19 1 4 3 -2 6 -13 5 -11 0 -14 -3 -6 -6z"/>
<path d="M4846 2649 c22 -39 90 -129 97 -129 5 0 -8 24 -29 53 -38 53 -84 105
-68 76z"/>
<path d="M4752 2572 c-60 -45 -61 -47 -35 -50 15 -2 38 -13 49 -24 17 -15 23
-16 27 -6 8 20 28 -12 21 -34 -4 -13 0 -18 16 -18 19 0 21 4 15 30 -4 17 -5
30 -3 30 2 0 18 -4 36 -9 24 -7 31 -7 26 2 -8 13 -74 107 -84 119 -3 5 -34
-13 -68 -40z"/>
<path d="M2480 2596 c0 -3 9 -10 20 -16 11 -6 20 -8 20 -6 0 3 -9 10 -20 16
-11 6 -20 8 -20 6z"/>
<path d="M280 2551 c0 -5 5 -13 10 -16 6 -3 10 -2 10 4 0 5 -4 13 -10 16 -5 3
-10 2 -10 -4z"/>
<path d="M2540 2556 c0 -12 390 -279 397 -272 8 7 22 -3 -142 108 -165 112
-255 170 -255 164z"/>
<path d="M30 2517 c0 -15 57 -123 142 -267 47 -80 173 -296 281 -480 432 -741
487 -833 480 -799 -3 18 -12 40 -20 47 -7 7 -13 17 -13 22 0 5 -6 15 -13 22
-15 15 -393 656 -500 848 -38 69 -107 188 -154 265 -90 150 -91 152 -117 205
-22 46 -85 147 -86 137z"/>
<path d="M4675 2500 c3 -5 13 -10 21 -10 8 0 12 5 9 10 -3 6 -13 10 -21 10 -8
0 -12 -4 -9 -10z"/>
<path d="M4880 2355 c-14 -17 -35 -21 -25 -5 11 19 -32 10 -95 -18 l-62 -29
46 0 c25 -1 46 3 46 9 0 5 8 7 18 4 18 -6 96 26 107 44 10 16 -21 12 -35 -5z"/>
<path d="M1922 2320 c0 -14 2 -19 5 -12 2 6 2 18 0 25 -3 6 -5 1 -5 -13z"/>
<path d="M4875 2315 c-22 -13 -52 -24 -67 -24 -31 -1 -58 -10 -58 -20 0 -4 17
-17 39 -29 21 -12 44 -29 51 -37 7 -8 16 -15 20 -15 7 0 73 88 103 138 13 21
-44 12 -88 -13z"/>
<path d="M3185 2250 c-19 -37 -19 -40 5 -40 16 0 20 7 20 35 0 43 -5 44 -25 5z"/>
<path d="M1911 2254 c0 -11 3 -14 6 -6 3 7 2 16 -1 19 -3 4 -6 -2 -5 -13z"/>
<path d="M1067 2155 c-10 -98 -7 -366 3 -390 6 -13 9 12 10 75 0 52 3 147 6
210 6 139 -8 218 -19 105z"/>
<path d="M1901 2194 c0 -11 3 -14 6 -6 3 7 2 16 -1 19 -3 4 -6 -2 -5 -13z"/>
<path d="M3114 1985 c3 -16 22 -127 41 -245 43 -258 116 -619 109 -535 -10
113 -136 791 -150 804 -3 3 -4 -7 0 -24z"/>
<path d="M2850 1938 c-58 -33 -260 -148 -450 -255 -335 -190 -464 -269 -270
-165 441 234 850 464 844 473 -8 13 -10 12 -124 -53z"/>
<path d="M4580 1835 c-17 -25 -29 -45 -26 -45 3 0 19 20 36 45 17 25 29 45 26
45 -3 0 -19 -20 -36 -45z"/>
<path d="M4439 1633 c-56 -82 -117 -168 -134 -193 -40 -58 -47 -70 -41 -70 2
0 49 64 104 143 134 193 184 267 178 267 -2 0 -50 -66 -107 -147z"/>
<path d="M2485 1760 c-3 -6 1 -7 9 -4 18 7 21 14 7 14 -6 0 -13 -4 -16 -10z"/>
<path d="M2402 1716 c-29 -18 -56 -37 -60 -41 -9 -10 109 54 123 66 20 19 -12
6 -63 -25z"/>
<path d="M3080 1582 c0 -20 132 -729 175 -939 25 -120 43 -183 44 -153 2 43
-115 664 -176 935 -33 149 -43 185 -43 157z"/>
<path d="M3910 1560 c0 -19 3 -21 12 -12 9 9 9 15 0 24 -9 9 -12 7 -12 -12z"/>
<path d="M4285 1370 c-70 -99 -131 -177 -136 -175 -4 3 -11 0 -15 -6 -5 -8 -3
-9 6 -4 8 5 11 3 8 -6 -3 -8 -10 -13 -16 -12 -20 4 -463 -623 -468 -663 -1
-13 -5 -29 -9 -36 -3 -7 5 1 19 17 14 17 24 36 21 43 -3 7 -1 11 4 8 8 -5 331
443 331 459 0 4 -8 1 -17 -6 -16 -13 -17 -12 -4 3 7 10 17 16 21 13 4 -3 90
113 191 257 197 281 202 288 196 288 -2 0 -61 -81 -132 -180z m-161 -222 c-16
-29 -87 -128 -91 -128 -6 0 4 15 51 83 36 51 58 77 40 45z"/>
<path d="M1753 1375 c-56 -30 -204 -111 -329 -181 -174 -97 -232 -125 -252
-121 -17 3 -30 -1 -38 -11 -11 -15 -15 -14 -38 11 -14 15 -28 27 -31 27 -12 0
8 -75 23 -86 8 -6 16 -23 18 -37 2 -21 -5 -29 -37 -46 -22 -12 -50 -21 -62
-22 -39 -1 -41 0 423 -135 107 -31 197 -59 200 -61 2 -2 0 -7 -5 -11 -14 -10
-17 -39 -5 -47 14 -8 13 -48 -2 -63 -8 -8 -8 -15 2 -27 19 -23 27 -19 40 20
l11 35 31 -16 c16 -8 32 -13 36 -10 3 3 2 6 -2 6 -4 0 2 13 13 29 l21 29 -25
6 c-14 4 -25 10 -25 15 0 10 22 4 810 -230 778 -232 773 -230 785 -239 23 -17
67 -17 83 0 9 9 31 20 47 24 28 6 29 5 11 -9 -31 -24 -4 -18 32 7 17 13 56 59
87 102 l55 80 -28 12 c-15 6 -44 28 -65 47 l-38 35 7 -36 c4 -21 11 -47 15
-60 11 -30 11 -45 0 -38 -7 5 -12 -20 -23 -111 -1 -10 -5 -10 -15 -1 -11 9
-22 7 -50 -7 l-36 -20 -43 50 -44 49 0 -32 c0 -53 -18 -36 -22 20 -5 57 -1 75
9 40 5 -19 12 -22 62 -22 31 0 62 -5 69 -12 9 -9 16 -7 33 8 11 10 25 26 29
35 8 13 5 15 -15 11 -27 -5 -32 6 -12 27 10 11 6 12 -20 6 -28 -6 -33 -3 -38
17 -9 39 -66 341 -72 381 -3 21 -10 40 -15 43 -5 3 -7 -5 -4 -18 10 -43 69
-403 70 -422 1 -27 -46 -42 -85 -26 -23 10 -30 21 -35 49 l-6 37 -341 102
c-541 162 -510 152 -496 168 9 11 7 14 -10 14 -11 0 -21 -4 -21 -9 0 -5 -9 -7
-20 -4 -31 8 -24 20 23 37 213 78 464 167 474 168 7 1 10 4 8 8 -5 7 104 71
199 117 l58 28 -6 60 c-3 32 -10 63 -14 67 -5 5 -251 -80 -548 -188 l-539
-196 -142 42 c-86 26 -140 47 -136 53 3 6 1 7 -6 3 -6 -4 -34 0 -61 9 -40 13
-50 21 -50 39 0 12 4 26 10 32 5 5 11 18 13 29 2 11 7 29 11 40 38 100 47 152
30 159 -8 3 -14 2 -14 -3 0 -5 -11 -11 -23 -15 -22 -5 -26 -16 -45 -127 -12
-67 -23 -123 -24 -125 -4 -4 -162 40 -216 60 -41 15 -46 15 -82 -4 -22 -11
-46 -20 -55 -20 -41 0 -1 32 128 103 203 111 522 308 497 307 -3 0 -51 -25
-107 -55z m-330 -391 c67 -20 293 -88 502 -151 209 -63 403 -122 430 -130 28
-8 100 -30 160 -50 181 -58 457 -131 546 -144 46 -6 87 -16 90 -21 3 -5 25
-12 48 -15 49 -7 51 -16 20 -98 -18 -49 -23 -55 -50 -55 -19 0 -29 -5 -29 -15
0 -28 35 -37 -610 160 -239 73 -523 158 -630 189 -107 30 -310 91 -450 134
l-255 80 1 51 c2 53 -1 54 -41 22 -18 -15 -19 -15 -6 2 12 15 11 17 -8 17 -13
0 -21 6 -21 16 0 15 2 15 23 1 16 -10 28 -12 40 -5 9 5 17 5 17 1 0 -4 4 -3 8
3 9 14 63 43 80 44 7 0 67 -16 135 -36z m1257 12 c-15 -14 -92 -50 -326 -151
l-121 -52 -54 14 c-30 8 -57 17 -62 22 -12 12 505 179 558 180 17 1 17 -1 5
-13z m-980 -340 c0 -2 -7 -9 -15 -16 -12 -10 -15 -10 -15 4 0 9 7 16 15 16 8
0 15 -2 15 -4z"/>
<path d="M1805 755 c40 -16 379 -113 464 -133 56 -14 41 1 -24 21 -198 62
-388 116 -430 121 l-50 6 40 -15z"/>
<path d="M2458 573 c7 -3 16 -2 19 1 4 3 -2 6 -13 5 -11 0 -14 -3 -6 -6z"/>
<path d="M4243 1348 c-15 -20 -25 -38 -20 -38 3 0 12 11 21 25 17 26 16 35 -1
13z"/>
<path d="M1179 1293 c12 -18 27 -33 34 -33 6 0 5 5 -4 13 -8 6 -23 21 -33 32
-14 15 -13 11 3 -12z"/>
<path d="M1020 1228 c-30 -6 -58 -15 -62 -22 -9 -14 -9 -102 1 -136 6 -21 8
-22 14 -7 3 9 16 17 28 17 24 0 39 16 69 72 20 37 27 89 13 87 -5 -1 -33 -6
-63 -11z"/>
<path d="M913 1160 c0 -36 2 -50 4 -32 2 17 2 47 0 65 -2 17 -4 3 -4 -33z"/>
<path d="M3271 1124 c0 -11 3 -14 6 -6 3 7 2 16 -1 19 -3 4 -6 -2 -5 -13z"/>
<path d="M1392 1098 c-29 -17 -51 -32 -49 -35 3 -2 31 12 63 32 72 43 60 46
-14 3z"/>
<path d="M4019 1083 c-13 -16 -12 -17 4 -4 16 13 21 21 13 21 -2 0 -10 -8 -17
-17z"/>
<path d="M3281 1054 c0 -11 3 -14 6 -6 3 7 2 16 -1 19 -3 4 -6 -2 -5 -13z"/>
<path d="M3103 1002 c-59 -24 -65 -35 -10 -16 26 9 49 20 53 25 7 11 8 11 -43
-9z"/>
<path d="M966 995 c-3 -10 1 -15 14 -15 10 0 25 -9 33 -21 8 -11 17 -16 20
-12 5 8 -44 63 -56 63 -3 0 -7 -7 -11 -15z"/>
<path d="M3457 545 c6 -53 17 -83 25 -69 3 5 -3 34 -13 64 l-18 55 6 -50z"/>
<path d="M1550 561 c0 -10 9 -21 20 -24 24 -6 26 6 4 27 -20 21 -24 20 -24 -3z"/>
<path d="M1652 521 c-11 -6 -11 -17 -3 -48 l11 -41 66 -7 c63 -7 101 3 75 19
-6 4 -11 18 -11 31 0 23 -17 35 -51 35 -10 0 -19 5 -19 10 0 12 -50 13 -68 1z"/>
<path d="M1520 506 c0 -2 7 -7 16 -10 8 -3 12 -2 9 4 -6 10 -25 14 -25 6z"/>
<path d="M1597 475 c-20 -19 -14 -35 14 -35 20 0 22 4 10 34 -7 17 -8 17 -24
1z"/>
</g>
</svg>
