<?xml version="1.0" standalone="no"?>
<!DOCTYPE svg PUBLIC "-//W3C//DTD SVG 20010904//EN"
 "http://www.w3.org/TR/2001/REC-SVG-20010904/DTD/svg10.dtd">
<svg version="1.0" xmlns="http://www.w3.org/2000/svg"
 width="500.000000pt" height="200.000000pt" viewBox="0 0 500.000000 200.000000"
 preserveAspectRatio="xMidYMid meet">

<g transform="translate(0.000000,200.000000) scale(0.100000,-0.100000)"
fill="#000000" stroke="none">
<path d="M0 1000 l0 -1000 2500 0 2500 0 0 1000 0 1000 -2500 0 -2500 0 0
-1000z m1648 556 l312 -179 0 -372 0 -373 -321 -185 -322 -184 -323 185 -324
186 0 371 0 370 318 182 c174 101 324 182 333 180 9 -1 156 -83 327 -181z
m830 -153 c3 -22 1 -23 -82 -23 l-86 0 0 -40 0 -40 75 0 c68 0 75 -2 75 -20 0
-17 -8 -19 -72 -22 l-73 -3 -3 -42 -3 -43 85 0 c79 0 86 -2 86 -20 0 -19 -7
-20 -115 -20 l-115 0 0 143 c0 79 3 147 7 151 4 3 54 5 112 4 101 -3 106 -4
109 -25z m122 -103 l0 -130 80 0 c73 0 80 -2 80 -20 0 -19 -7 -20 -110 -20
l-110 0 0 150 0 150 30 0 30 0 0 -130z m420 105 c0 -25 -1 -25 -80 -25 l-80 0
0 -40 0 -40 70 0 c63 0 70 -2 70 -20 0 -18 -7 -20 -70 -20 l-70 0 0 -45 0 -45
85 0 c78 0 85 -2 85 -20 0 -19 -7 -20 -115 -20 l-115 0 0 150 0 150 110 0 110
0 0 -25z m284 11 c44 -18 54 -35 31 -52 -15 -11 -22 -11 -46 1 -78 41 -159 -4
-159 -87 1 -87 85 -136 160 -91 24 14 31 14 44 4 25 -21 19 -31 -30 -53 -107
-47 -219 13 -231 124 -14 120 113 204 231 154z m316 -11 c0 -23 -3 -25 -50
-25 l-50 0 0 -125 0 -125 -25 0 -25 0 0 125 0 125 -50 0 c-47 0 -50 2 -50 25
l0 25 125 0 125 0 0 -25z m223 14 c41 -11 77 -56 77 -97 0 -29 -25 -78 -46
-90 -15 -8 -13 -15 15 -56 l32 -46 -30 0 c-23 0 -36 9 -58 40 -25 35 -32 40
-70 40 l-43 0 0 -40 c0 -36 -2 -40 -25 -40 l-25 0 0 150 0 150 68 0 c37 0 84
-5 105 -11z m374 -15 c48 -36 67 -70 67 -122 0 -65 -28 -111 -84 -140 -105
-54 -224 6 -237 120 -7 60 24 120 75 148 48 26 140 23 179 -6z m-1739 -584
c35 -22 39 -32 17 -50 -11 -9 -19 -8 -37 4 -47 33 -133 12 -156 -39 -22 -47
-15 -84 22 -121 39 -39 77 -44 128 -18 28 14 32 14 47 -1 15 -15 14 -17 -9
-35 -70 -54 -176 -34 -234 43 -28 38 -28 126 0 164 54 72 152 96 222 53z m144
-42 l3 -63 78 -3 77 -3 0 66 0 65 30 0 30 0 0 -150 0 -150 -30 0 -30 0 0 60 0
60 -80 0 -80 0 0 -60 c0 -57 -1 -60 -25 -60 l-25 0 0 150 0 150 25 0 c23 0 24
-4 27 -62z m508 -80 c35 -79 65 -146 67 -150 2 -5 -9 -8 -25 -8 -23 0 -32 7
-45 35 l-17 36 -73 -3 c-71 -3 -72 -4 -86 -35 -12 -27 -20 -33 -44 -33 -19 0
-27 4 -24 13 3 6 33 74 67 150 58 126 65 137 90 137 24 0 31 -11 90 -142z
m170 -8 l0 -150 -30 0 -30 0 0 150 0 150 30 0 30 0 0 -150z m205 50 l80 -99 3
99 3 100 29 0 30 0 0 -150 0 -150 -27 0 c-23 1 -41 17 -103 95 l-75 94 -3 -94
-3 -95 -29 0 -30 0 0 150 c0 149 0 150 23 150 16 0 44 -27 102 -100z"/>
<path d="M1013 1522 l-292 -167 0 -350 0 -350 293 -167 c162 -93 298 -168 303
-168 5 0 141 76 303 169 l295 169 0 347 0 347 -295 169 c-162 93 -299 169
-305 169 -5 -1 -141 -76 -302 -168z m420 -285 c-31 -120 -54 -220 -51 -223 3
-3 33 1 67 9 33 8 61 12 61 10 0 -2 -76 -117 -170 -255 -93 -138 -170 -245
-170 -237 0 8 25 108 54 223 l55 208 -40 -6 c-21 -3 -58 -9 -81 -13 l-42 -6
40 55 c153 214 329 456 331 454 1 -1 -23 -100 -54 -219z"/>
<path d="M3720 1320 l0 -60 48 0 c60 0 92 21 92 60 0 39 -32 60 -92 60 l-48 0
0 -60z"/>
<path d="M4049 1351 c-50 -51 -36 -137 28 -170 85 -43 180 49 143 140 -27 63
-121 80 -171 30z"/>
<path d="M3007 710 l-26 -60 56 0 c61 0 59 -6 25 77 -9 24 -20 43 -23 43 -3 0
-17 -27 -32 -60z"/>
</g>
</svg>
