<!DOCTYPE svg PUBLIC "-//W3C//DTD SVG 1.1//EN" "http://www.w3.org/Graphics/SVG/1.1/DTD/svg11.dtd">
<!-- Uploaded to: SVG Repo, www.svgrepo.com, Transformed by: SVG Repo Mixer Tools -->
<svg width="800px" height="800px" viewBox="0 0 64 64" xmlns="http://www.w3.org/2000/svg" fill="none" stroke="#ffffff" stroke-width="1.6640000000000001">
<g id="SVGRepo_bgCarrier" stroke-width="0"/>
<g id="SVGRepo_tracerCarrier" stroke-linecap="round" stroke-linejoin="round"/>
<g id="SVGRepo_iconCarrier">
<path d="m54 26 2 2-4 4 4 12-2 10-12-4-6 4h-8l-6-4-12 4-2-10 4-12-4-4 2-2-2-10 2-8 14 8h16l14-8 2 8-2 10z"/>
<path d="m40 16-2 8-2 16h-8l-2-16-2-8"/>
<path d="m28 40-6 10"/>
<path d="m36 40 6 10"/>
<path d="M32 48v6"/>
<path d="m12 32 14-8"/>
<path d="m38 24 14 8"/>
<path d="m28 40-10-4"/>
<path d="m36 40 10-4"/>
</g>
</svg>